<?xml version="1.0" standalone="no"?>
<!DOCTYPE svg PUBLIC "-//W3C//DTD SVG 1.1//EN" "http://www.w3.org/Graphics/SVG/1.1/DTD/svg11.dtd" >
<svg xmlns="http://www.w3.org/2000/svg">
<metadata>Generated by IcoMoon</metadata>
<defs>
<font id="icomoon" horiz-adv-x="1024">
<font-face units-per-em="1024" ascent="960" descent="-64" />
<missing-glyph horiz-adv-x="1024" />
<glyph unicode="&#x20;" horiz-adv-x="512" d="" />
<glyph unicode="&#xe900;" glyph-name="icons-27" d="M512 290.987c-61.44 0-102.4 54.613-102.4 129.707s40.96 129.707 102.4 129.707 102.4-47.787 102.4-129.707-40.96-129.707-102.4-129.707zM580.267 953.173c-170.667 20.48-327.68-34.133-443.733-157.013s-157.013-286.72-122.88-457.387c40.96-191.147 191.147-348.16 382.293-389.12 34.133-6.827 75.093-13.653 116.053-13.653 81.92 0 157.013 20.48 225.28 54.613 27.307 13.653 34.133 40.96 20.48 68.267s-40.96 34.133-68.267 20.48c-88.747-40.96-184.32-54.613-279.893-34.133-150.187 34.133-273.067 157.013-307.2 314.027-27.307 136.533 6.827 266.24 102.4 368.64 95.573 95.573 225.28 143.36 361.813 122.88 204.8-27.307 354.987-211.627 354.987-430.080v-27.307c0-54.613-47.787-102.4-102.4-102.4s-102.4 47.787-102.4 102.4v204.8c0 27.307-20.48 54.613-54.613 54.613-20.48 0-34.133-13.653-40.96-34.133-27.307 20.48-68.267 34.133-109.227 34.133-122.88 0-204.8-95.573-204.8-232.107s81.92-232.107 204.8-232.107c61.44 0 116.053 27.307 150.187 68.267 40.96-40.96 95.573-68.267 157.013-68.267 116.053 0 204.8 88.747 204.8 204.8v34.133c0 266.24-191.147 498.347-443.733 525.653z" />
<glyph unicode="&#xe901;" glyph-name="icons-04" horiz-adv-x="1792" d="M1574.4 921.6c51.2 51.2 128 51.2 179.2 0s51.2-128 0-179.2l-768-768c-51.2-51.2-128-51.2-179.2 0l-768 768c-51.2 51.2-51.2 128 0 179.2s128 51.2 179.2 0l678.4-678.4 678.4 678.4z" />
<glyph unicode="&#xe902;" glyph-name="icons-05" horiz-adv-x="592" d="M175.543 440.686l394.971-380.343c29.257-29.257 29.257-73.143 0-102.4s-73.143-29.257-102.4 0l-446.171 431.543c-29.257 29.257-29.257 73.143 0 102.4l431.543 446.171c29.257 29.257 73.143 29.257 102.4 0s29.257-73.143 0-102.4l-380.343-394.971z" />
<glyph unicode="&#xe903;" glyph-name="icons-06" horiz-adv-x="585" d="M409.6 448l-387.657 387.657c-29.257 29.257-29.257 73.143 0 102.4s73.143 29.257 102.4 0l438.857-438.857c29.257-29.257 29.257-73.143 0-102.4l-438.857-438.857c-29.257-29.257-73.143-29.257-102.4 0s-29.257 73.143 0 102.4l387.657 387.657z" />
<glyph unicode="&#xe904;" glyph-name="icons-07" horiz-adv-x="1792" d="M896 652.8l-678.4-678.4c-51.2-51.2-128-51.2-179.2 0s-51.2 128 0 179.2l768 768c51.2 51.2 128 51.2 179.2 0l768-768c51.2-51.2 51.2-128 0-179.2s-128-51.2-179.2 0l-678.4 678.4z" />
<glyph unicode="&#xe905;" glyph-name="icons-08" d="M1024 857.6l-102.4 102.4-409.6-409.6-409.6 409.6-102.4-102.4 409.6-409.6-409.6-409.6 102.4-102.4 409.6 409.6 409.6-409.6 102.4 102.4-409.6 409.6z" />
<glyph unicode="&#xe906;" glyph-name="icons-09" d="M752.64 944.64l256-256c20.48-20.48 20.48-51.2 0-71.68l-665.6-665.6c-10.24-10.24-20.48-15.36-35.84-15.36h-256c-30.72 0-51.2 20.48-51.2 51.2v256c0 15.36 5.12 25.6 15.36 35.84l665.6 665.6c20.48 20.48 51.2 20.48 71.68 0zM102.4 222.72v-184.32h184.32l614.4 614.4-184.32 184.32-614.4-614.4z" />
<glyph unicode="&#xe907;" glyph-name="icons-10" horiz-adv-x="1365" d="M682.667 334.222c62.578 0 113.778 51.2 113.778 113.778s-51.2 113.778-113.778 113.778-113.778-51.2-113.778-113.778 51.2-113.778 113.778-113.778zM682.667 220.444c-125.156 0-227.556 102.4-227.556 227.556s102.4 227.556 227.556 227.556 227.556-102.4 227.556-227.556-102.4-227.556-227.556-227.556zM147.911 408.178c34.133-51.2 73.956-102.4 113.778-147.911 125.156-130.844 267.378-210.489 420.978-210.489s295.822 79.644 420.978 210.489c45.511 45.511 85.333 96.711 113.778 147.911 11.378 17.067 17.067 28.444 22.756 39.822-5.689 11.378-17.067 28.444-22.756 39.822-34.133 51.2-73.956 102.4-113.778 147.911-125.156 130.844-267.378 210.489-420.978 210.489s-295.822-79.644-420.978-210.489c-45.511-45.511-85.333-96.711-113.778-147.911-11.378-11.378-17.067-28.444-28.444-39.822 11.378-11.378 17.067-28.444 28.444-39.822zM5.689 470.756c5.689 17.067 22.756 45.511 45.511 73.956 34.133 56.889 79.644 113.778 130.844 164.978 142.222 159.289 307.2 250.311 500.622 250.311s358.4-91.022 506.311-244.622c51.2-51.2 91.022-108.089 130.844-164.978 22.756-34.133 34.133-62.578 45.511-73.956 5.689-17.067 5.689-34.133 0-51.2s-22.756-45.511-45.511-73.956c-34.133-56.889-79.644-113.778-130.844-164.978-147.911-159.289-312.889-250.311-506.311-250.311s-358.4 91.022-506.311 244.622c-51.2 51.2-91.022 108.089-130.844 164.978-22.756 34.133-34.133 62.578-45.511 73.956 0 17.067 0 39.822 5.689 51.2z" />
<glyph unicode="&#xe908;" glyph-name="icons-19" horiz-adv-x="840" d="M557.949 802.462v-118.154h118.154l-118.154 118.154zM741.744 585.846h-229.744c-26.256 0-45.949 26.256-45.949 45.949v236.308h-328.205c-26.256 0-45.949-19.692-45.949-45.949v-741.744c0-26.256 19.692-45.949 45.949-45.949h557.949c26.256 0 45.949 19.692 45.949 45.949v505.436h45.949c26.256 0 45.949 19.692 45.949 45.949 0 6.564 0 13.128-6.564 19.692 0-6.564 6.564-13.128 6.564-19.692v-557.949c0-78.769-65.641-137.846-137.846-137.846h-557.949c-78.769 0-137.846 65.641-137.846 137.846v748.308c0 72.205 65.641 137.846 137.846 137.846h374.154c13.128 0 26.256-6.564 32.821-13.128l282.256-282.256c6.564-6.564 6.564-6.564 13.128-13.128l-98.462-65.641zM374.154 264.205h-91.897c-26.256 0-45.949 19.692-45.949 45.949s19.692 45.949 45.949 45.949h91.897v91.897c0 26.256 19.692 45.949 45.949 45.949s45.949-19.692 45.949-45.949v-91.897h91.897c26.256 0 45.949-19.692 45.949-45.949s-19.692-45.949-45.949-45.949h-91.897v-91.897c0-26.256-19.692-45.949-45.949-45.949s-45.949 19.692-45.949 45.949v91.897z" />
<glyph unicode="&#xe909;" glyph-name="icons-20" horiz-adv-x="840" d="M328.205 631.795c26.256 0 45.949-19.692 45.949-45.949s-26.256-45.949-45.949-45.949h-98.462c-26.256 0-45.949 19.692-45.949 45.949s26.256 45.949 45.949 45.949h98.462zM603.897 264.205c26.256 0 45.949-19.692 45.949-45.949s-19.692-45.949-45.949-45.949h-374.154c-26.256 0-45.949 19.692-45.949 45.949s19.692 45.949 45.949 45.949h374.154zM603.897 448c26.256 0 45.949-19.692 45.949-45.949s-19.692-45.949-45.949-45.949h-374.154c-26.256 0-45.949 19.692-45.949 45.949s19.692 45.949 45.949 45.949h374.154zM557.949 802.462v-118.154h118.154l-118.154 118.154zM741.744 585.846h-229.744c-26.256 0-45.949 26.256-45.949 45.949v236.308h-328.205c-26.256 0-45.949-19.692-45.949-45.949v-741.744c0-26.256 19.692-45.949 45.949-45.949h557.949c26.256 0 45.949 19.692 45.949 45.949v505.436h45.949c26.256 0 45.949 19.692 45.949 45.949 0 6.564 0 13.128-6.564 19.692 0-6.564 6.564-13.128 6.564-19.692v-557.949c0-78.769-65.641-137.846-137.846-137.846h-557.949c-78.769 0-137.846 65.641-137.846 137.846v748.308c0 72.205 65.641 137.846 137.846 137.846h374.154c13.128 0 26.256-6.564 32.821-13.128l282.256-282.256c6.564-6.564 6.564-6.564 13.128-13.128l-98.462-65.641z" />
<glyph unicode="&#xe90a;" glyph-name="icons-21" horiz-adv-x="1879" d="M1879.341 791.341c0-96.376-72.282-168.659-168.659-168.659-12.047 0-24.094 0-48.188 0l-301.176-301.176c0-12.047 12.047-24.094 12.047-48.188 0-96.376-72.282-168.659-168.659-168.659s-180.706 84.329-180.706 168.659c0 12.047 0 36.141 12.047 48.188l-228.894 216.847c-12.047 0-24.094 0-48.188 0-12.047 0-36.141 0-48.188 0l-373.459-385.506c0-12.047 0-24.094 0-48.188 0-96.376-72.282-168.659-168.659-168.659s-168.659 72.282-168.659 168.659c0 96.376 72.282 168.659 168.659 168.659 12.047 0 24.094 0 48.188 0l385.506 385.506c0 12.047 0 24.094 0 48.188 0 96.376 72.282 168.659 168.659 168.659s168.659-72.282 168.659-168.659c0-12.047 0-36.141-12.047-48.188l216.847-216.847c12.047 0 24.094 0 48.188 0s36.141 0 48.188 0l301.176 301.176c0 12.047-12.047 24.094-12.047 48.188 0 96.376 72.282 168.659 168.659 168.659s180.706-72.282 180.706-168.659z" />
<glyph unicode="&#xe90b;" glyph-name="icons-22" horiz-adv-x="1270" d="M503.607-64l766.601 1024-1270.208-151.082 195.847-341.333 783.388 324.546-671.475-514.798z" />
<glyph unicode="&#xe90c;" glyph-name="icons-23" horiz-adv-x="932" d="M742.4 678.4h-558.080v-604.16c0-25.6 20.48-46.080 46.080-46.080h465.92c25.6 0 46.080 20.48 46.080 46.080v604.16zM604.16 775.68v46.080c0 25.6-20.48 46.080-46.080 46.080h-184.32c-25.6 0-46.080-20.48-46.080-46.080v-46.080h276.48zM696.32 775.68h184.32c25.6 0 46.080-20.48 46.080-46.080s-20.48-46.080-46.080-46.080h-46.080v-604.16c0-76.8-61.44-138.24-138.24-138.24h-465.92c-76.8 0-138.24 61.44-138.24 138.24v599.040h-46.080c-25.6 0-46.080 25.6-46.080 51.2s20.48 46.080 46.080 46.080h184.32v46.080c0 76.8 66.56 138.24 143.36 138.24h184.32c76.8 0 138.24-61.44 138.24-138.24v-46.080z" />
<glyph unicode="&#xe90d;" glyph-name="icons-24" horiz-adv-x="1226" d="M435.353 549.174c85.844 0 153.293 67.449 153.293 153.293s-67.449 153.293-153.293 153.293c-85.844 0-153.293-67.449-153.293-153.293 0-79.713 67.449-153.293 153.293-153.293zM435.353 451.066c-141.030 0-257.533 116.503-257.533 257.533s116.503 251.401 257.533 251.401c141.030 0 257.533-116.503 257.533-257.533s-116.503-251.401-257.533-251.401zM870.707-8.814c0-30.659-24.527-49.054-49.054-49.054-30.659 0-49.054 24.527-49.054 49.054v104.24c0 85.844-67.449 153.293-153.293 153.293h-361.772c-85.844 0-153.293-67.449-153.293-153.293v-104.24c0-30.659-24.527-49.054-49.054-49.054-30.659 0-49.054 24.527-49.054 49.054v104.24c-6.132 134.898 110.371 251.401 251.401 251.401h355.641c141.030 0 257.533-116.503 257.533-257.533v-98.108zM1073.054 549.174h104.24c24.527 0 49.054-18.395 49.054-49.054s-24.527-49.054-49.054-49.054h-104.24v-104.24c0-30.659-24.527-49.054-49.054-49.054-30.659 0-49.054 24.527-49.054 49.054v104.24h-104.24c-30.659 0-49.054 24.527-49.054 49.054 0 30.659 24.527 49.054 49.054 49.054h104.24v104.24c0 30.659 24.527 49.054 49.054 49.054 30.659 0 49.054-24.527 49.054-49.054v-104.24z" />
<glyph unicode="&#xe90e;" glyph-name="icons-25" horiz-adv-x="1226" d="M461.521 548.958c86.535 0 151.437 72.113 151.437 151.437s-72.113 151.437-151.437 151.437-151.437-72.113-151.437-151.437 64.901-151.437 151.437-151.437zM807.662 851.831c-28.845 7.211-43.268 36.056-36.056 64.901s36.056 43.268 64.901 36.056c115.38-28.845 194.704-129.803 194.704-245.183s-79.324-216.338-194.704-245.183c-28.845-7.211-57.69 7.211-64.901 36.056s7.211 57.69 36.056 64.901c64.901 14.423 115.38 79.324 115.38 151.437 0 57.69-50.479 122.592-115.38 137.014zM1225.915-13.521c0-28.845-21.634-50.479-50.479-50.479s-50.479 21.634-50.479 50.479v108.169c0 72.113-50.479 129.803-115.38 151.437-28.845 7.211-43.268 36.056-36.056 64.901s36.056 43.268 64.901 36.056c108.169-36.056 187.493-137.014 187.493-252.394v-108.169zM461.521 448c-144.225 0-252.394 115.38-252.394 252.394s108.169 259.606 252.394 259.606 252.394-115.38 252.394-252.394-115.38-259.606-252.394-259.606zM915.831-13.521c0-28.845-21.634-50.479-50.479-50.479s-50.479 21.634-50.479 50.479v108.169c0 86.535-72.113 151.437-151.437 151.437h-411.042c-86.535 0-151.437-72.113-151.437-151.437v-100.958c0-28.845-21.634-50.479-50.479-50.479s-50.479 21.634-50.479 50.479v100.958c0 144.225 115.38 252.394 252.394 252.394h411.042c144.225 0 252.394-115.38 252.394-252.394v-108.169z" />
<glyph unicode="&#xe90f;" glyph-name="icons-26" horiz-adv-x="1536" d="M1085.44 386.56l-320.853-320.853-314.027 320.853h191.147v252.587h259.413v-259.413h184.32zM1235.627 570.88c-40.96 225.28-232.107 389.12-464.213 389.12-191.147 0-348.16-102.4-430.080-259.413-191.147-20.48-341.333-184.32-341.333-382.293 0-211.627 170.667-382.293 382.293-382.293h832.853c177.493 0 320.853 143.36 320.853 320.853 0 170.667-129.707 307.2-300.373 314.027z" />
<glyph unicode="&#xe910;" glyph-name="icons-28" horiz-adv-x="926" d="M369.197 33.524c27.864 0 48.762-20.898 48.762-48.762s-20.898-48.762-48.762-48.762h-229.878c-76.626 0-139.32 62.694-139.32 139.32v745.361c0 76.626 62.694 139.32 139.32 139.32h229.878c27.864 0 48.762-20.898 48.762-48.762 0-20.898-20.898-41.796-48.762-41.796h-229.878c-27.864 0-48.762-20.898-48.762-48.762v-745.361c0-27.864 20.898-48.762 48.762-48.762h229.878zM773.224 402.721h-445.823c-27.864 0-48.762 20.898-48.762 48.762s20.898 48.762 48.762 48.762h445.823l-111.456 104.49c-20.898 20.898-20.898 48.762 0 62.694 20.898 20.898 48.762 20.898 62.694 0l188.082-188.082c20.898-20.898 20.898-48.762 0-62.694l-188.082-188.082c-20.898-20.898-48.762-20.898-62.694 0-20.898 20.898-20.898 48.762 0 62.694l111.456 111.456z" />
<glyph unicode="&#xe911;" glyph-name="icons-11" d="M857.6 341.333c29.867 34.133 55.467 68.267 76.8 106.667-4.267 8.533-12.8 21.333-17.067 29.867-25.6 38.4-55.467 76.8-85.333 110.933-98.133 98.133-204.8 157.867-320 157.867-25.6 0-55.467-4.267-81.067-8.533-21.333-4.267-42.667 8.533-51.2 29.867-4.267 25.6 8.533 46.933 34.133 51.2 29.867 8.533 64 12.8 98.133 12.8 145.067 0 268.8-68.267 379.733-183.467 38.4-38.4 68.267-81.067 98.133-123.733 17.067-25.6 25.6-46.933 34.133-55.467 4.267-12.8 4.267-25.6 0-38.4-25.6-51.2-59.733-98.133-98.133-145.067-17.067-17.067-42.667-21.333-59.733-4.267-21.333 12.8-25.6 38.4-8.533 59.733zM793.6 226.133c0 0 4.267 0 0 0l217.6-217.6c17.067-17.067 17.067-42.667 0-59.733s-42.667-17.067-59.733 0l-192 192c-72.533-51.2-157.867-76.8-247.467-76.8-145.067 0-268.8 68.267-379.733 183.467-38.4 38.4-68.267 81.067-98.133 123.733-17.067 25.6-25.6 46.933-34.133 55.467-4.267 12.8-4.267 25.6 0 38.4 46.933 89.6 110.933 170.667 187.733 234.667l-174.933 187.733c-17.067 17.067-17.067 42.667 0 59.733s42.667 17.067 59.733 0l213.333-213.333c0 0 0 0 0 0l162.133-162.133c0 0 0 0 0 0l179.2-179.2c0 0 0 0 0 0l166.4-166.4zM256 644.267c-64-55.467-123.733-123.733-166.4-196.267 4.267-8.533 12.8-21.333 17.067-29.867 25.6-38.4 55.467-76.8 85.333-110.933 98.133-98.133 204.8-157.867 320-157.867 64 0 132.267 17.067 187.733 51.2l-98.133 98.133c-38.4-25.6-85.333-34.133-132.267-21.333-59.733 17.067-106.667 64-123.733 123.733-12.8 46.933-4.267 93.867 17.067 132.267l-106.667 110.933z" />
<glyph unicode="&#xe912;" glyph-name="icons-12" d="M516.655 159.418c-23.273 0-41.891 4.655-55.855 18.618s-23.273 32.582-23.273 51.2c0 18.618 9.309 37.236 23.273 51.2s32.582 18.618 55.855 18.618c23.273 0 41.891-4.655 55.855-18.618s23.273-27.927 23.273-51.2c0-18.618-9.309-37.236-23.273-51.2s-32.582-18.618-55.855-18.618zM465.455 331.636c0 4.655-4.655 13.964-4.655 23.273s0 13.964 0 23.273c0 9.309 0 23.273 4.655 32.582 0 9.309 4.655 18.618 9.309 27.927s9.309 18.618 18.618 23.273c4.655 9.309 13.964 13.964 23.273 23.273s18.618 13.964 23.273 23.273c9.309 4.655 13.964 13.964 18.618 18.618s9.309 13.964 9.309 23.273c4.655 9.309 4.655 13.964 4.655 23.273s0 13.964-4.655 23.273c-4.655 4.655-4.655 13.964-13.964 18.618-4.655 4.655-9.309 9.309-18.618 9.309-9.309 4.655-13.964 4.655-23.273 4.655-18.618 0-41.891-4.655-60.509-13.964-23.273-9.309-41.891-23.273-60.509-37.236v111.709c18.618 9.309 41.891 18.618 65.164 27.927 23.273 4.655 46.545 9.309 69.818 9.309s46.545-4.655 65.164-9.309c18.618-4.655 37.236-13.964 51.2-23.273s27.927-23.273 37.236-41.891c9.309-18.618 13.964-41.891 13.964-65.164 0-13.964 0-27.927-4.655-41.891s-9.309-23.273-13.964-37.236c-4.655-9.309-13.964-23.273-23.273-32.582s-23.273-18.618-32.582-32.582c-9.309-9.309-18.618-13.964-23.273-18.618s-13.964-13.964-18.618-18.618c-4.655-4.655-9.309-13.964-9.309-18.618s-4.655-13.964-4.655-23.273c0-4.655 0-13.964 4.655-18.618 0-4.655 4.655-9.309 4.655-13.964h-107.055zM512 29.091c232.727 0 418.909 186.182 418.909 418.909s-186.182 418.909-418.909 418.909-418.909-186.182-418.909-418.909 186.182-418.909 418.909-418.909zM512-64c-283.927 0-512 228.073-512 512s228.073 512 512 512 512-228.073 512-512-228.073-512-512-512z" />
<glyph unicode="&#xe913;" glyph-name="icons-13" d="M65.164 489.891l446.836-223.418 446.836 223.418c23.273 9.309 51.2 0 60.509-18.618 9.309-23.273 0-51.2-18.618-60.509l-465.455-232.727c-13.964-4.655-27.927-4.655-41.891 0l-465.455 232.727c-23.273 9.309-32.582 37.236-18.618 60.509 9.309 18.618 37.236 27.927 55.855 18.618zM65.164 257.164l446.836-223.418 446.836 223.418c23.273 9.309 51.2 0 60.509-18.618 9.309-23.273 0-51.2-18.618-60.509l-465.455-232.727c-13.964-4.655-27.927-4.655-41.891 0l-465.455 232.727c-23.273 9.309-32.582 37.236-18.618 60.509 9.309 18.618 37.236 27.927 55.855 18.618zM512 862.255l-363.055-181.527 363.055-181.527 363.055 181.527-363.055 181.527zM493.382 955.345c13.964 4.655 27.927 4.655 41.891 0l465.455-232.727c32.582-18.618 32.582-65.164 0-83.782l-465.455-232.727c-13.964-4.655-27.927-4.655-41.891 0l-465.455 232.727c-32.582 18.618-32.582 65.164 0 83.782l465.455 232.727z" />
<glyph unicode="&#xe914;" glyph-name="icons-14" horiz-adv-x="832" d="M121.6 448c-19.2 0-38.4-19.2-38.4-44.8v-326.4c0-25.6 19.2-44.8 38.4-44.8h582.4c25.6 0 38.4 19.2 38.4 44.8v326.4c0 25.6-19.2 44.8-38.4 44.8h-582.4zM249.6 544h332.8v134.4c0 102.4-76.8 185.6-166.4 185.6s-166.4-83.2-166.4-185.6v-134.4zM166.4 544v134.4c0 153.6 108.8 281.6 249.6 281.6s249.6-128 249.6-281.6v-140.8h44.8c70.4 0 121.6-64 121.6-140.8v-326.4c0-76.8-57.6-140.8-121.6-140.8h-588.8c-64 6.4-121.6 70.4-121.6 147.2v326.4c0 76.8 57.6 140.8 121.6 140.8h44.8z" />
<glyph unicode="&#xe915;" glyph-name="icons-15" horiz-adv-x="832" d="M121.6 448c-19.2 0-38.4-19.2-38.4-44.8v-326.4c0-25.6 19.2-44.8 38.4-44.8h582.4c25.6 0 38.4 19.2 38.4 44.8v326.4c0 25.6-19.2 44.8-38.4 44.8h-582.4zM166.4 544v134.4c0 140.8 96 262.4 224 275.2s243.2-83.2 268.8-224c6.4-25.6-12.8-51.2-32-57.6-19.2 6.4-44.8 19.2-51.2 44.8-12.8 96-89.6 160-179.2 147.2-83.2-6.4-147.2-89.6-147.2-185.6v-140.8h460.8c70.4 0 121.6-64 121.6-140.8v-326.4c0-76.8-57.6-140.8-121.6-140.8h-588.8c-64 6.4-121.6 70.4-121.6 147.2v326.4c0 76.8 57.6 140.8 121.6 140.8h44.8z" />
<glyph unicode="&#xe916;" glyph-name="icons-16" d="M512 294.4c-62.578 0-102.4 51.2-102.4 125.156s39.822 130.844 102.4 130.844c62.578 0 102.4-51.2 102.4-125.156s-39.822-130.844-102.4-130.844zM580.267 954.311c-170.667 22.756-329.956-34.133-443.733-159.289s-159.289-290.133-125.156-455.111c39.822-193.422 187.733-347.022 381.156-392.533 39.822-5.689 79.644-11.378 119.467-11.378 79.644 0 153.6 17.067 227.556 51.2 22.756 11.378 34.133 45.511 22.756 68.267s-45.511 34.133-68.267 22.756c-85.333-39.822-182.044-51.2-278.756-28.444-147.911 34.133-273.067 159.289-301.511 312.889-28.444 130.844 5.689 267.378 96.711 364.089s221.867 142.222 358.4 125.156c204.8-28.444 352.711-210.489 352.711-426.667v-28.444c0-56.889-45.511-102.4-102.4-102.4s-102.4 45.511-102.4 102.4v204.8c0 28.444-22.756 51.2-51.2 51.2-22.756 0-39.822-11.378-45.511-28.444-34.133 17.067-68.267 28.444-108.089 28.444-119.467 0-204.8-96.711-204.8-227.556s85.333-227.556 204.8-227.556c62.578 0 113.778 28.444 153.6 73.956 39.822-45.511 91.022-73.956 153.6-73.956 113.778 0 204.8 91.022 204.8 204.8v22.756c0 273.067-193.422 494.933-443.733 529.067z" />
<glyph unicode="&#xe917;" glyph-name="icons-17" d="M1024 213.471v-138.735c0-39.639-13.213-79.277-46.245-105.703-26.426-26.426-66.065-39.639-105.703-33.032-151.948 13.213-297.29 66.065-422.813 151.948-118.916 72.671-224.619 171.768-297.29 290.684-85.884 132.129-132.129 277.471-151.948 429.419 0 39.639 13.213 79.277 39.639 105.703s59.458 46.245 99.097 46.245h138.735c72.671 0 132.129-52.852 138.735-118.916 6.606-39.639 13.213-79.277 33.032-118.916 19.819-52.852 6.606-112.31-33.032-145.342l-33.032-39.639c52.852-85.884 125.523-158.555 211.406-211.406l33.032 33.032c39.639 39.639 99.097 52.852 145.342 33.032 39.639-13.213 79.277-26.426 118.916-33.032 79.277-13.213 132.129-72.671 132.129-145.342zM931.51 213.471c0 26.426-19.819 46.245-39.639 46.245-46.245 6.606-99.097 19.819-138.735 33.032-19.819 6.606-39.639 0-46.245-13.213l-59.458-59.458c-13.213-13.213-39.639-19.819-59.458-6.606-125.523 79.277-231.226 184.981-303.897 303.897-6.606 19.819-6.606 46.245 6.606 59.458l59.458 59.458c13.213 13.213 19.819 33.032 13.213 46.245-19.819 46.245-26.426 92.49-33.032 145.342 0 26.426-26.426 39.639-46.245 39.639h-145.342c-13.213 0-26.426-6.606-33.032-13.213-6.606-13.213-13.213-26.426-13.213-39.639 13.213-138.735 59.458-270.865 138.735-383.174 66.065-105.703 158.555-198.194 264.258-264.258 112.31-72.671 244.439-118.916 383.174-138.735 13.213 0 26.426 0 33.032 13.213 6.606 6.606 13.213 19.819 13.213 33.032v138.735z" />
<glyph unicode="&#xe918;" glyph-name="icons-18" d="M374.154 428.308v-118.154h118.154l420.103 420.103-124.718 118.154-413.538-420.103zM820.513 946.872l190.359-183.795c19.692-19.692 19.692-45.949 0-65.641l-466.051-466.051c-6.564-6.564-19.692-13.128-32.821-13.128h-183.795c-26.256 0-45.949 19.692-45.949 45.949v183.795c0 13.128 6.564 26.256 13.128 32.821l466.051 466.051c13.128 19.692 45.949 19.692 59.077 0zM840.205 323.282c0 26.256 19.692 45.949 45.949 45.949s45.949-19.692 45.949-45.949v-249.436c0-78.769-65.641-137.846-137.846-137.846h-656.41c-78.769 0-137.846 65.641-137.846 137.846v656.41c0 78.769 65.641 137.846 137.846 137.846h249.436c26.256 0 45.949-19.692 45.949-45.949s-19.692-45.949-45.949-45.949h-249.436c-26.256 0-45.949-19.692-45.949-45.949v-649.846c0-26.256 19.692-45.949 45.949-45.949h649.846c26.256 0 45.949 19.692 45.949 45.949v242.872z" />
<glyph unicode="&#xe919;" glyph-name="icons-40" d="M1006.933-46.933c-25.6-25.6-68.267-25.6-93.867 0l-196.267 204.8c-179.2-128-426.667-119.467-580.267 42.667-170.667 170.667-170.667 460.8 0 631.467s460.8 170.667 631.467 0c162.133-162.133 170.667-409.6 42.667-580.267l204.8-204.8c17.067-25.6 17.067-68.267-8.533-93.867zM674.133 738.133c-128 128-324.267 128-452.267 0s-128-324.267 0-452.267c128-128 324.267-128 452.267 0s128 324.267 0 452.267z" />
</font>
</defs>
</svg>
